<?xml version="1.0" encoding="utf-8"?>
<!-- Generator: Adobe Illustrator 24.3.0, SVG Export Plug-In . SVG Version: 6.00 Build 0)  -->
<svg version="1.1" id="Layer_1" xmlns="http://www.w3.org/2000/svg" xmlns:xlink="http://www.w3.org/1999/xlink" x="0px" y="0px"
	 viewBox="0 0 2146.67 908.06" style="enable-background:new 0 0 2146.67 908.06;" xml:space="preserve">
<style type="text/css">
	.st0{fill-rule:evenodd;clip-rule:evenodd;fill:url(#SVGID_1_);}
	.st1{fill:#FFFFFF;}
</style>
<g>
	<linearGradient id="SVGID_1_" gradientUnits="userSpaceOnUse" x1="419.8347" y1="276.7608" x2="419.8347" y2="631.3002">
		<stop  offset="0" style="stop-color:#83DCED"/>
		<stop  offset="0.4443" style="stop-color:#00B4D8"/>
		<stop  offset="0.7746" style="stop-color:#0077B6"/>
		<stop  offset="1" style="stop-color:#03045E"/>
	</linearGradient>
	<path class="st0" d="M558.53,492.83c0,59.92-38.12,110.95-91.47,130.23c-1.3,0.47-2.66-0.51-2.66-1.89v-30.35c0,0,0,0,0,0V439.89
		c0-1.1,0.9-2,2-2h25.71c1.1,0,2,0.9,2,2v126.09c0,1.79,2.19,2.69,3.43,1.4c18.65-19.35,30.14-45.64,30.14-74.55
		c0-24.8-8.2-48.09-23.71-67.34l-1.04-1.28l-81.54-99.7c-0.8-0.98-2.3-0.98-3.1,0l-81.65,99.84l-0.9,1.11
		c-15.53,19.28-23.74,42.57-23.74,67.38c0,28.91,11.49,55.2,30.14,74.55c1.24,1.29,3.43,0.39,3.43-1.4v-59.11c0-1.1,0.9-2,2-2h25.71
		c1.1,0,2,0.9,2,2v83.96c0.03,0.01,0.06,0.03,0.09,0.04v30.34c0,1.38-1.37,2.36-2.66,1.89c-53.4-19.26-91.56-70.31-91.56-130.26
		c0-32.84,11.45-63,30.57-86.73l0.34-0.42l0-0.01l103.94-127.09c1.98-2.43,5.7-2.43,7.68,0l103.94,127.09l0,0.01l0.34,0.42
		C547.08,429.84,558.53,460,558.53,492.83z M434.73,599.42c-0.01,0-0.03,0-0.04,0.01V473.38c0-1.1-0.9-2-2-2h-25.71
		c-1.1,0-2,0.9-2,2v101.69h0.05v53.62c0,1.03,0.78,1.9,1.81,2c4.28,0.4,8.62,0.61,13,0.61c4.41,0,8.78-0.21,13.09-0.62
		c1.03-0.1,1.81-0.97,1.81-2V599.42z"/>
</g>
<g>
	<path class="st1" d="M695.39,449.83l-38.25-11.97c-8.96-2.72-15.67-6.81-20.15-12.26c-4.48-5.45-6.72-11.68-6.72-18.69
		c0-6.03,1.51-11.29,4.53-15.77c3.02-4.48,7.25-7.93,12.7-10.37c5.45-2.43,11.78-3.65,18.98-3.65c11.87,0,22.29,3.07,31.24,9.2
		c8.95,6.13,15.67,14.94,20.15,26.43l28.62-12.26c-3.5-10.51-9.1-19.81-16.79-27.89c-7.69-8.08-16.89-14.4-27.59-18.98
		c-10.71-4.57-22.58-6.86-35.62-6.86c-13.82,0-26.04,2.63-36.65,7.88c-10.61,5.26-18.88,12.56-24.82,21.9
		c-5.94,9.34-8.91,20.05-8.91,32.12c0,14.02,4.23,26.28,12.7,36.79s20.88,18.3,37.23,23.36l41.17,12.85
		c8.56,2.53,15.08,6.18,19.56,10.95c4.48,4.77,6.72,11.05,6.72,18.83c0,5.84-1.61,11-4.82,15.48c-3.21,4.48-7.69,7.93-13.43,10.37
		c-5.74,2.44-12.51,3.65-20.29,3.65c-13.24,0-24.92-3.6-35.04-10.8c-10.12-7.2-17.81-17.52-23.07-30.95l-29.2,12.26
		c3.7,11.68,9.68,22.05,17.96,31.1c8.27,9.05,18.2,16.11,29.78,21.17c11.58,5.06,24.28,7.59,38.11,7.59
		c14.6,0,27.45-2.68,38.54-8.03c11.1-5.35,19.81-12.7,26.13-22.05c6.32-9.34,9.49-20.05,9.49-32.12c0-14.6-4.38-26.81-13.14-36.65
		C725.76,462.64,712.71,455.09,695.39,449.83z"/>
	<path class="st1" d="M869.42,502.98c0,7.59-1.46,14.21-4.38,19.86c-2.92,5.65-7.01,10.03-12.26,13.14
		c-5.26,3.12-11.39,4.67-18.4,4.67c-6.82,0-12.85-1.51-18.1-4.53c-5.26-3.02-9.34-7.25-12.26-12.7c-2.92-5.45-4.38-11.78-4.38-18.98
		v-94.61h-33v97.53c0,12.66,2.43,23.8,7.3,33.43c4.86,9.64,11.83,17.13,20.88,22.48c9.05,5.35,19.51,8.03,31.39,8.03
		c11.29,0,21.27-2.58,29.93-7.74c6.18-3.68,11.09-8.58,14.75-14.7v18.93h31.54V409.83h-33V502.98z"/>
	<rect x="927.82" y="350.26" class="st1" width="33" height="37.96"/>
	<rect x="927.82" y="409.83" class="st1" width="33" height="157.97"/>
	<polygon class="st1" points="1095.21,452.33 1021.55,350.26 989.43,350.26 989.43,567.8 1023.88,567.8 1023.88,410.51 
		1092.8,506.48 1096.3,506.48 1165.5,412.16 1165.5,567.8 1199.67,567.8 1199.67,350.26 1167.55,350.26 	"/>
	<path class="st1" d="M1322.16,413.33c-9.64-4.67-20.69-7.01-33.14-7.01c-10.12,0-19.61,1.66-28.47,4.96
		c-8.86,3.31-16.55,7.98-23.07,14.02c-6.52,6.04-11.34,12.95-14.45,20.73l27.74,13.72c3.11-7.4,7.93-13.33,14.45-17.81
		c6.52-4.48,14.06-6.72,22.63-6.72c9.54,0,17.23,2.48,23.07,7.45s8.76,11.24,8.76,18.83v6.03l-50.22,8.28
		c-12.26,1.95-22.34,5.26-30.22,9.93c-7.88,4.67-13.72,10.42-17.52,17.23c-3.8,6.82-5.69,14.5-5.69,23.07
		c0,9.15,2.24,17.13,6.72,23.94c4.48,6.82,10.75,12.07,18.83,15.77c8.08,3.7,17.47,5.55,28.18,5.55c8.76,0,16.84-1.27,24.24-3.8
		c7.4-2.53,13.92-6.13,19.56-10.8c2.77-2.29,5.29-4.79,7.59-7.5v18.6h31.54V461.51c0-10.9-2.68-20.49-8.03-28.76
		C1339.29,424.48,1331.8,418,1322.16,413.33z M1313.98,523.86c-3.8,6.52-9.05,11.73-15.77,15.62c-6.72,3.9-14.45,5.84-23.21,5.84
		c-7.2,0-13.09-1.9-17.67-5.69c-4.58-3.8-6.86-8.71-6.86-14.75c0-6.03,2.04-11.1,6.13-15.18c4.09-4.09,10.51-6.91,19.27-8.47
		l43.8-7.39v8.26C1319.68,510.08,1317.78,517.33,1313.98,523.86z"/>
	<path class="st1" d="M1423.92,414.65c-5.91,3.47-10.57,8.65-14.02,15.53v-20.35h-31.54V567.8h33v-91.1
		c0-12.26,3.36-21.8,10.07-28.62c6.72-6.81,15.52-10.22,26.43-10.22h13.72v-30.08h-9.64
		C1441.05,407.78,1431.7,410.07,1423.92,414.65z"/>
	<polygon class="st1" points="1614.89,409.83 1573.42,409.83 1507.43,478.27 1507.43,346.76 1474.43,346.76 1474.43,567.8 
		1507.43,567.8 1507.43,519.84 1531.11,494.68 1579.26,567.8 1617.51,567.8 1555.32,473.19 	"/>
	<path class="st1" d="M1743.36,429.25c-6.42-7.1-14.31-12.7-23.65-16.79c-9.34-4.09-20.05-6.13-32.12-6.13
		c-14.6,0-27.79,3.55-39.57,10.66c-11.78,7.11-21.07,16.79-27.89,29.05c-6.82,12.26-10.22,26.38-10.22,42.34
		c0,15.58,3.4,29.64,10.22,42.19c6.81,12.56,16.25,22.48,28.32,29.78c12.07,7.3,25.99,10.95,41.76,10.95
		c10.9,0,20.88-1.71,29.93-5.11c9.05-3.4,16.84-8.03,23.36-13.87c6.52-5.84,11.34-12.46,14.45-19.86l-26.86-13.43
		c-4.09,6.82-9.44,12.36-16.06,16.64c-6.62,4.28-14.8,6.42-24.53,6.42c-9.15,0-17.37-2.24-24.67-6.72
		c-7.3-4.48-12.95-10.7-16.94-18.69c-2.75-5.49-4.32-11.62-4.71-18.4h117.57c0.58-2.34,0.97-4.86,1.17-7.59
		c0.19-2.72,0.29-5.35,0.29-7.88c0-10.32-1.71-20.05-5.11-29.2C1754.7,444.48,1749.79,436.36,1743.36,429.25z M1648.75,459.47
		c3.7-8.18,8.95-14.45,15.77-18.83c6.81-4.38,14.5-6.57,23.07-6.57c8.76,0,16.45,2.19,23.07,6.57c6.62,4.38,11.48,10.32,14.6,17.81
		c1.75,4.2,2.73,8.73,2.94,13.58h-83.16C1645.79,467.5,1647.02,463.31,1648.75,459.47z"/>
	<path class="st1" d="M1860.45,540.06c-1.95,0.2-3.7,0.29-5.26,0.29c-6.23,0-11.29-1.02-15.18-3.07c-3.9-2.04-6.72-4.96-8.47-8.76
		s-2.63-8.42-2.63-13.87v-74.75h35.92v-30.08h-35.92v-36.21h-33v12.26c0,7.4-2.09,13.24-6.28,17.52c-4.19,4.28-9.98,6.42-17.37,6.42
		h-4.38v30.08h28.03v76.21c0,16.94,4.57,30.08,13.72,39.42c9.15,9.34,22,14.02,38.54,14.02c2.53,0,5.45-0.2,8.76-0.58
		c3.31-0.39,6.32-0.78,9.05-1.17v-28.32C1864.25,539.67,1862.4,539.87,1860.45,540.06z"/>
</g>
</svg>
